# File created by Blade
# Date/Time:  Tue Sep 30 19:15:05 2014
# Frame Rate: 120.000 fps
#------------------------------------------------------
:FULLY-SPECIFIED
:DEGREES
4127
root -0.812398 34.877532 -2.094296 63.032597 -38.472702 -62.342751
Spine -17.481487 42.243288 9.429396
Head -30.333437 -47.077756 50.744721
LeftShoulder 24.201281 8.078182 27.032734
LeftArm -59.983371 -0.394223 -71.998655
LeftForeArm -145.495039 -2.162942 3.142614
LeftHand -0.000001 36.163017 19.982094
LeftHandThumb1 30.357831 13.997178 22.438692
RightShoulder -28.420517 -4.466480 -16.696875
RightArm 43.592428 23.950256 75.864789
RightForeArm 93.748107 -4.389329 -0.287263
RightHand 0.000013 2.143958 25.644044
RightHandThumb1 30.482666 -12.916435 -20.793814
LeftUpLeg -18.662656 28.319340 29.534743
LeftLeg 13.166800 -0.000000 0.000000
LeftFoot -20.262450 35.777339 -9.626791
LeftToeBase 5.972300 -0.000000 -0.000000
RightUpLeg -11.515008 -24.521312 -48.132659
RightLeg 93.272598 -0.000000 -0.000000
RightFoot 31.190283 -25.368403 -8.434381
RightToeBase 17.890699 -0.000000 0.000000
4128
root -0.794498 34.872828 -2.085296 62.673799 -38.520170 -61.857035
Spine -17.631573 42.033770 9.053391
Head -30.452536 -47.165359 50.826292
LeftShoulder 23.902484 7.990900 27.048590
LeftArm -60.029923 -0.102990 -72.038457
LeftForeArm -145.394296 -2.180827 3.156655
LeftHand 0.000029 36.151895 20.007968
LeftHandThumb1 30.357831 13.997178 22.438692
RightShoulder -28.414731 -4.525594 -16.747083
RightArm 42.953512 23.384303 74.518791
RightForeArm 93.699067 -4.470405 -0.288719
RightHand 0.000029 2.046673 25.521882
RightHandThumb1 30.482666 -12.916435 -20.793814
LeftUpLeg -18.671173 28.014798 29.224772
LeftLeg 12.917100 -0.000000 0.000000
LeftFoot -20.330643 35.268958 -9.857804
LeftToeBase 6.412200 -0.000000 -0.000000
RightUpLeg -11.351176 -24.257449 -47.637459
RightLeg 93.268600 -0.000000 -0.000000
RightFoot 30.747425 -25.414779 -8.341279
RightToeBase 18.102800 -0.000000 -0.000000
4129
root -0.781398 34.864230 -2.075096 62.269904 -38.570592 -61.348064
Spine -17.784502 41.822814 8.679189
Head -30.452818 -47.249335 50.738965
LeftShoulder 24.030161 7.998189 27.048267
LeftArm -60.023754 -0.399538 -71.998120
LeftForeArm -145.347673 -2.156649 3.116327
LeftHand 0.000000 36.174376 19.802162
LeftHandThumb1 30.357831 13.997178 22.438692
RightShoulder -28.348422 -4.557496 -16.783653
RightArm 42.266795 22.812769 73.088483
RightForeArm 93.666429 -4.522363 -0.289484
RightHand -0.000053 1.909192 25.515829
RightHandThumb1 30.482666 -12.916435 -20.793814
LeftUpLeg -18.653523 27.749241 28.907757
LeftLeg 12.679100 0.000000 0.000000
LeftFoot -20.426384 34.791518 -10.132755
LeftToeBase 6.700400 -0.000000 0.000000
RightUpLeg -11.155978 -24.000449 -47.140542
RightLeg 93.274200 -0.000000 -0.000000
RightFoot 30.384416 -25.364088 -8.500951
RightToeBase 18.058599 -0.000000 -0.000000
4130
root -0.770898 34.854930 -2.061896 61.808218 -38.596523 -60.800085
Spine -17.947453 41.616956 8.280373
Head -30.446682 -47.358964 50.743503
LeftShoulder 24.071888 7.925779 27.152379
LeftArm -59.873585 -0.608629 -72.164633
LeftForeArm -145.382923 -2.081351 3.011727
LeftHand -0.000071 36.057729 19.786816
LeftHandThumb1 30.357831 13.997178 22.438692
RightShoulder -28.204084 -4.661925 -16.781422
RightArm 41.600651 22.273497 71.579979
RightForeArm 93.541216 -4.455211 -0.275430
RightHand -0.000038 1.918121 25.471629
RightHandThumb1 30.482666 -12.916435 -20.793814
LeftUpLeg -18.618376 27.563841 28.564680
LeftLeg 12.389300 -0.000000 -0.000000
LeftFoot -20.476761 34.284400 -10.368682
LeftToeBase 6.886100 -0.000000 -0.000000
RightUpLeg -10.895230 -23.754584 -46.614900
RightLeg 93.254501 -0.000000 -0.000000
RightFoot 30.011288 -25.460504 -8.663758
RightToeBase 18.052200 -0.000000 -0.000000
4131
root -0.771998 34.844828 -2.044596 61.298261 -38.608147 -60.225219
Spine -18.140681 41.354986 7.868346
Head -30.292947 -47.451998 50.671046
LeftShoulder 23.879701 7.909065 27.228462
LeftArm -59.670057 -0.603494 -72.226102
LeftForeArm -145.492201 -2.125426 3.087911
LeftHand -0.000047 35.882965 19.472242
LeftHandThumb1 30.357831 13.997178 22.438692
RightShoulder -28.028387 -4.769305 -16.749526
RightArm 40.969885 21.730945 70.071999
RightForeArm 93.313655 -4.417032 -0.255486
RightHand 0.000019 1.876596 25.580727
RightHandThumb1 30.482666 -12.916435 -20.793814
LeftUpLeg -18.543017 27.460642 28.209718
LeftLeg 12.062800 -0.000000 -0.000000
LeftFoot -20.534816 33.753452 -10.651675
LeftToeBase 7.215900 -0.000000 -0.000000
RightUpLeg -10.586018 -23.464315 -46.053331
RightLeg 93.225601 0.000000 0.000000
RightFoot 29.646200 -25.746333 -8.630477
RightToeBase 18.047800 -0.000000 -0.000000
4132
root -0.767398 34.834132 -2.032296 60.727125 -38.561717 -59.557382
Spine -18.324107 41.079348 7.464177
Head -30.184462 -47.498156 50.567572
LeftShoulder 23.649649 7.809379 27.240145
LeftArm -59.440049 -0.542633 -72.243201
LeftForeArm -145.659515 -2.066784 3.021737
LeftHand -0.000041 35.747189 19.485289
LeftHandThumb1 30.357831 13.997178 22.438692
RightShoulder -27.779147 -4.910793 -16.757618
RightArm 40.257866 21.178886 68.454610
RightForeArm 93.074639 -4.488456 -0.240846
RightHand -0.000030 1.839596 25.523613
RightHandThumb1 30.482666 -12.916435 -20.793814
LeftUpLeg -18.561943 27.303321 27.827566
LeftLeg 11.775200 -0.000000 0.000000
LeftFoot -20.594112 33.247778 -10.904233
LeftToeBase 7.351700 -0.000000 -0.000000
RightUpLeg -10.255523 -23.191825 -45.450513
RightLeg 93.207901 -0.000000 0.000000
RightFoot 29.607104 -25.757420 -8.848729
RightToeBase 17.868700 -0.000000 0.000000
4133
root -0.769098 34.822730 -2.019496 60.169709 -38.557642 -58.932197
Spine -18.514071 40.838534 7.019822
Head -30.066679 -47.513618 50.491764
LeftShoulder 23.589235 7.763887 27.300469
LeftArm -59.225602 -0.744685 -72.282176
LeftForeArm -145.822823 -1.941795 2.856797
LeftHand -0.000044 35.804730 19.377906
LeftHandThumb1 30.357831 13.997178 22.438692
RightShoulder -27.635759 -5.028705 -16.776610
RightArm 39.626908 20.483211 66.836686
RightForeArm 92.762475 -4.540340 -0.218849
RightHand 0.000031 1.736633 25.248145
RightHandThumb1 30.482666 -12.916435 -20.793814
LeftUpLeg -18.519300 27.267987 27.426001
LeftLeg 11.446800 0.000000 0.000000
LeftFoot -20.535377 32.722015 -10.979934
LeftToeBase 7.766200 0.000000 0.000000
RightUpLeg -9.993548 -22.859577 -44.818934
RightLeg 93.207199 0.000000 0.000000
RightFoot 29.619722 -25.809566 -8.943364
RightToeBase 17.869200 0.000000 0.000000
4134
root -0.771798 34.814029 -2.010196 59.683838 -38.531100 -58.362548
Spine -18.780284 40.704568 6.533144
Head -30.051099 -47.600693 50.491867
LeftShoulder 23.530057 7.716751 27.433817
LeftArm -58.898186 -0.988418 -72.406666
LeftForeArm -145.937545 -1.786123 2.639523
LeftHand 0.000016 35.705908 19.252307
LeftHandThumb1 30.357831 13.997178 22.438692
RightShoulder -27.361373 -5.288541 -16.797333
RightArm 39.012315 19.905089 65.193927
RightForeArm 92.344172 -4.544110 -0.185824
RightHand 0.000033 1.717380 25.090413
RightHandThumb1 30.482666 -12.916435 -20.793814
LeftUpLeg -18.518608 27.338921 27.045983
LeftLeg 11.188500 0.000000 0.000000
LeftFoot -20.582954 32.050429 -11.228670
LeftToeBase 7.943900 0.000000 0.000000
RightUpLeg -9.845561 -22.486314 -44.044911
RightLeg 93.205101 -0.000000 -0.000000
RightFoot 29.786959 -25.840510 -8.974733
RightToeBase 17.848600 -0.000000 -0.000000
4135
root -0.759198 34.798232 -2.000196 59.049678 -38.453697 -57.554588
Spine -18.975941 40.364339 6.092150
Head -29.978273 -47.608550 50.291700
LeftShoulder 23.441270 7.643318 27.455699
LeftArm -58.746752 -1.091618 -72.550491
LeftForeArm -146.043477 -1.716983 2.547642
LeftHand -0.000020 35.516814 19.037068
LeftHandThumb1 30.357831 13.997178 22.438692
RightShoulder -27.103881 -5.470013 -16.862259
RightArm 38.416206 19.354493 63.441532
RightForeArm 91.834323 -4.643430 -0.148547
RightHand 0.000025 1.619554 24.965639
RightHandThumb1 30.482666 -12.916435 -20.793814
LeftUpLeg -18.635695 26.890045 26.613447
LeftLeg 10.936300 0.000000 0.000000
LeftFoot -20.603627 31.824472 -11.348134
LeftToeBase 8.242400 0.000000 0.000000
RightUpLeg -9.618836 -22.245744 -43.366632
RightLeg 93.205597 0.000000 0.000000
RightFoot 30.011671 -25.622046 -9.055452
RightToeBase 17.902201 -0.000000 -0.000000
4136
root -0.760198 34.787032 -1.992796 58.534549 -38.460405 -56.967038
Spine -19.160604 40.187264 5.618074
Head -29.959303 -47.555096 50.202263
LeftShoulder 23.366695 7.593907 27.552523
LeftArm -58.697347 -1.267613 -72.707183
LeftForeArm -146.105167 -1.676132 2.492904
LeftHand 0.000037 35.517840 18.921498
LeftHandThumb1 30.357831 13.997178 22.438692
RightShoulder -26.814001 -5.736529 -16.862580
RightArm 37.880873 18.840941 61.734468
RightForeArm 91.220318 -4.763424 -0.101353
RightHand 0.000036 1.617359 24.807005
RightHandThumb1 30.482666 -12.916435 -20.793814
LeftUpLeg -18.596413 26.726064 26.252264
LeftLeg 10.668600 -0.000000 -0.000000
LeftFoot -20.716809 31.442548 -11.660965
LeftToeBase 8.620600 -0.000000 -0.000000
RightUpLeg -9.536327 -21.902593 -42.583595
RightLeg 93.233498 0.000000 0.000000
RightFoot 30.026638 -25.339609 -9.037855
RightToeBase 17.929001 0.000000 0.000000
4137
root -0.758399 34.774230 -1.986196 58.000718 -38.476814 -56.347137
Spine -19.308314 39.943450 5.156635
Head -29.885036 -47.499303 50.016738
LeftShoulder 23.264302 7.531221 27.621401
LeftArm -58.803021 -1.298637 -72.881265
LeftForeArm -146.136359 -1.651551 2.459287
LeftHand 0.000058 35.541121 18.838750
LeftHandThumb1 30.357831 13.997178 22.438692
RightShoulder -26.398775 -6.028514 -16.963195
RightArm 37.305872 18.414151 60.163960
RightForeArm 90.454040 -4.871148 -0.038556
RightHand 0.000010 1.408365 24.709025
RightHandThumb1 30.482666 -12.916435 -20.793814
LeftUpLeg -18.568937 26.406567 25.900558
LeftLeg 10.451600 -0.000000 -0.000000
LeftFoot -20.551857 31.116464 -11.627942
LeftToeBase 8.525800 -0.000000 -0.000000
RightUpLeg -9.502501 -21.609172 -41.789671
RightLeg 93.241501 -0.000000 0.000000
RightFoot 30.129052 -24.900340 -9.193748
RightToeBase 18.008699 -0.000000 0.000000
4138
root -0.758198 34.758632 -1.980096 57.432336 -38.483815 -55.691525
Spine -19.438727 39.671796 4.705281
Head -29.814842 -47.370611 49.817505
LeftShoulder 23.196791 7.435803 27.690504
LeftArm -58.944805 -1.301458 -73.074166
LeftForeArm -146.104516 -1.628223 2.421695
LeftHand 0.000057 35.303756 18.717051
LeftHandThumb1 30.357831 13.997178 22.438692
RightShoulder -25.893465 -6.293172 -17.049782
RightArm 36.661753 18.034915 58.479522
RightForeArm 89.633987 -5.034498 0.032120
RightHand -0.000000 1.399038 24.623029
RightHandThumb1 30.482666 -12.916435 -20.793814
LeftUpLeg -18.563780 25.989833 25.563834
LeftLeg 10.315600 -0.000000 0.000000
LeftFoot -20.612087 30.870404 -11.830075
LeftToeBase 8.747500 -0.000000 0.000000
RightUpLeg -9.470728 -21.352805 -40.965848
RightLeg 93.253899 0.000000 0.000000
RightFoot 30.088999 -24.371768 -9.435258
RightToeBase 18.330099 -0.000000 -0.000000
4139
root -0.757299 34.739531 -1.973296 56.815562 -38.559797 -54.984816
Spine -19.513826 39.333473 4.192702
Head -29.701962 -47.197025 49.613142
LeftShoulder 23.115297 7.427132 27.745685
LeftArm -59.110691 -1.352185 -73.160124
LeftForeArm -146.051555 -1.590015 2.360237
LeftHand -0.000091 35.358773 18.593044
LeftHandThumb1 30.357831 13.997178 22.438692
RightShoulder -25.491942 -6.520105 -17.124267
RightArm 36.060096 17.572171 56.827520
RightForeArm 88.652592 -5.230361 0.122853
RightHand 0.000055 1.382490 24.361132
RightHandThumb1 30.482666 -12.916435 -20.793814
LeftUpLeg -18.531036 25.513434 25.164399
LeftLeg 10.190600 0.000000 0.000000
LeftFoot -20.728706 30.667584 -12.126051
LeftToeBase 8.791200 -0.000000 -0.000000
RightUpLeg -9.452986 -21.148605 -40.225647
RightLeg 93.297203 0.000000 0.000000
RightFoot 29.845547 -24.116212 -9.371094
RightToeBase 18.199699 -0.000000 0.000000
